<svg width="22" height="24" viewBox="0 0 22 24" fill="none" xmlns="http://www.w3.org/2000/svg">
<path d="M20.0526 6.19043L15.2894 8.94043M10.5263 22.6904V11.6904M1 6.19043L10.5263 11.6904M10.5263 11.6904L15.2894 8.94043M5.76314 3.44043L15.2894 8.94043" stroke="#E0CE7C" stroke-width="2"/>
<path d="M9.52628 1.26778C10.1451 0.910514 10.9075 0.910514 11.5263 1.26778L19.0526 5.61308C19.6714 5.97035 20.0526 6.6306 20.0526 7.34513V16.0357C20.0526 16.7503 19.6714 17.4105 19.0526 17.7678L11.5263 22.1131C10.9075 22.4703 10.1451 22.4703 9.52628 22.1131L2 17.7678C1.3812 17.4105 1 16.7503 1 16.0357V7.34513C1 6.6306 1.3812 5.97035 2 5.61308L5.76314 3.44043L9.52628 1.26778Z" stroke="#E0CE7C" stroke-width="2"/>
</svg>
